<?xml version="1.0" standalone="no"?>
<!DOCTYPE svg PUBLIC "-//W3C//DTD SVG 20010904//EN"
 "http://www.w3.org/TR/2001/REC-SVG-20010904/DTD/svg10.dtd">
<svg version="1.0" xmlns="http://www.w3.org/2000/svg"
 width="3639.000000pt" height="3934.000000pt" viewBox="0 0 3639.000000 3934.000000"
 preserveAspectRatio="xMidYMid meet">

<g transform="translate(0.000000,3934.000000) scale(0.100000,-0.100000)"
fill="#006465" stroke="none">
<path d="M11270 39319 c-123 -11 -314 -44 -415 -71 -100 -26 -415 -144 -469
-175 -23 -12 -70 -38 -106 -56 -110 -56 -299 -186 -409 -281 -192 -166 -301
-288 -431 -484 -75 -112 -190 -330 -190 -359 0 -10 -7 -28 -15 -41 -38 -53
-148 -400 -190 -597 -8 -38 -19 -88 -25 -110 -19 -76 -61 -280 -111 -545 -27
-146 -51 -272 -54 -280 -3 -8 -14 -67 -25 -130 -10 -63 -31 -160 -44 -214 -14
-55 -23 -103 -20 -107 3 -5 0 -17 -6 -28 -8 -16 -47 -156 -111 -406 -5 -21
-14 -44 -19 -50 -5 -6 -13 -29 -19 -50 -14 -58 -49 -156 -60 -169 -5 -6 -19
-38 -32 -71 -12 -33 -28 -69 -35 -80 -8 -11 -14 -26 -14 -35 0 -8 -9 -31 -20
-50 -11 -19 -42 -78 -69 -130 -53 -102 -158 -256 -204 -299 -16 -14 -55 -57
-88 -96 -33 -38 -81 -88 -108 -110 -27 -22 -106 -91 -176 -152 -70 -62 -132
-113 -139 -113 -6 0 -26 -13 -44 -30 -18 -16 -39 -30 -46 -30 -8 0 -19 -7 -27
-16 -26 -32 -517 -344 -541 -344 -3 0 -45 -23 -93 -50 -80 -47 -281 -158 -365
-202 -19 -11 -66 -37 -105 -58 -38 -22 -99 -55 -135 -74 -80 -42 -296 -168
-330 -193 -14 -10 -61 -39 -104 -65 -43 -26 -95 -60 -115 -75 -20 -16 -65 -48
-101 -72 -104 -71 -279 -220 -372 -316 -114 -117 -344 -437 -368 -512 -7 -21
-23 -57 -37 -79 -28 -49 -63 -135 -103 -254 -16 -47 -33 -97 -38 -110 -6 -14
-18 -61 -26 -105 -9 -44 -21 -94 -27 -112 -40 -127 -56 -524 -30 -748 15 -134
55 -344 82 -430 11 -38 23 -81 26 -95 3 -14 9 -29 13 -35 5 -5 17 -37 28 -70
39 -112 50 -140 109 -260 94 -192 227 -421 276 -475 8 -8 20 -26 27 -40 7 -14
22 -35 33 -47 11 -12 25 -31 31 -41 17 -29 73 -103 109 -144 17 -20 50 -60 72
-88 22 -29 60 -74 85 -101 25 -27 70 -76 100 -109 120 -131 273 -282 425 -415
87 -77 193 -171 234 -209 91 -82 228 -187 371 -284 58 -39 192 -133 298 -210
106 -76 232 -160 280 -187 48 -27 146 -87 217 -135 144 -97 465 -290 481 -290
6 0 37 -16 70 -37 80 -49 241 -136 469 -253 105 -53 204 -104 220 -113 66 -35
694 -330 885 -416 63 -29 138 -63 165 -76 161 -76 203 -95 209 -95 4 0 44 -16
89 -37 143 -63 248 -109 387 -168 47 -20 112 -50 144 -66 32 -16 64 -29 71
-29 7 0 37 -11 66 -24 49 -21 257 -110 369 -156 25 -10 76 -32 114 -49 37 -17
76 -31 87 -31 10 0 20 -4 23 -9 3 -5 106 -48 228 -96 123 -48 257 -102 298
-120 41 -18 104 -42 140 -54 36 -12 103 -37 150 -56 47 -18 146 -57 220 -85
74 -28 154 -60 178 -71 23 -10 48 -19 55 -19 7 0 58 -17 113 -39 190 -74 260
-99 364 -134 58 -19 126 -44 151 -56 25 -11 70 -27 100 -35 72 -20 379 -127
454 -159 33 -14 182 -64 330 -112 149 -48 287 -93 308 -101 20 -8 85 -28 145
-45 59 -17 136 -40 172 -51 36 -11 90 -26 120 -34 30 -8 105 -30 165 -49 445
-137 1102 -296 1555 -375 326 -58 444 -72 762 -95 279 -20 335 -19 563 10 249
32 346 62 483 153 66 43 147 148 167 215 55 184 -48 409 -340 751 -85 100
-326 359 -409 442 -33 33 -149 152 -256 264 -107 113 -224 234 -260 270 -151
153 -669 726 -749 829 -24 31 -70 87 -104 124 -33 37 -71 83 -86 102 -32 41
-106 135 -146 186 -36 45 -307 405 -353 469 -35 49 -251 368 -292 431 -67 103
-332 542 -363 599 -19 36 -48 88 -64 115 -16 28 -67 125 -113 215 -45 91 -86
170 -90 175 -8 11 -184 386 -243 520 -66 148 -89 209 -178 454 l-88 244 142
-8 c78 -5 160 -9 182 -10 141 -7 272 -19 287 -26 10 -6 19 -5 23 1 3 5 11 7
18 5 7 -3 82 -11 167 -20 85 -9 180 -20 210 -25 55 -9 135 -19 200 -25 101 -9
493 -78 695 -122 66 -14 138 -30 160 -34 22 -4 58 -12 80 -18 22 -5 78 -18
125 -29 47 -11 121 -29 165 -41 44 -12 98 -26 120 -31 22 -5 65 -16 95 -25 30
-10 71 -21 90 -25 19 -4 49 -13 65 -18 17 -6 50 -16 75 -23 25 -6 110 -33 190
-59 80 -26 174 -57 210 -68 36 -12 117 -40 180 -62 63 -23 135 -48 160 -57 25
-8 63 -23 85 -33 22 -10 56 -23 75 -30 114 -39 372 -141 401 -159 19 -12 41
-21 50 -21 9 0 41 -13 72 -30 31 -16 64 -30 72 -30 9 0 33 -9 53 -19 85 -44
211 -101 224 -101 7 0 27 -8 43 -18 17 -10 68 -36 115 -56 47 -21 135 -62 195
-91 61 -29 146 -70 190 -90 44 -21 190 -93 325 -160 135 -67 256 -126 270
-130 14 -4 36 -15 50 -25 23 -16 150 -75 335 -157 44 -20 96 -44 115 -54 20
-10 76 -32 125 -49 50 -17 101 -37 115 -44 14 -7 76 -26 139 -41 87 -21 141
-27 235 -28 117 -2 123 -1 188 30 76 36 100 59 163 153 58 88 74 159 77 345 2
153 1 164 -27 295 -45 217 -144 495 -273 770 -19 41 -54 116 -77 165 -50 106
-258 491 -343 636 -66 113 -87 147 -113 189 -16 25 -54 88 -85 140 -32 52 -66
106 -76 120 -10 14 -40 59 -66 100 -27 41 -57 88 -68 104 -10 16 -23 36 -29
45 -5 9 -20 30 -32 48 -13 17 -23 35 -23 39 0 4 -8 16 -17 26 -10 11 -26 34
-38 53 -11 18 -49 75 -85 126 -36 52 -70 104 -77 116 -6 13 -32 50 -57 82 -25
33 -46 64 -46 68 0 5 -11 20 -24 32 -14 13 -30 36 -36 52 -7 15 -23 35 -37 44
-13 9 -22 22 -20 28 2 7 -10 29 -27 49 -59 71 -83 103 -96 128 -7 13 -24 33
-37 43 -13 10 -21 23 -17 28 3 5 -15 33 -39 62 -43 50 -82 103 -132 178 -13
20 -35 49 -49 64 -14 15 -26 32 -26 37 0 5 -26 41 -57 80 -32 39 -65 81 -73
93 -8 13 -26 37 -40 54 -32 39 -75 96 -120 155 -19 26 -64 84 -100 130 -36 45
-74 94 -85 108 -110 145 -265 342 -400 507 -55 68 -105 132 -111 142 -6 11
-23 32 -38 47 -14 15 -68 79 -119 143 -50 64 -141 176 -202 249 -60 73 -119
144 -130 159 -11 14 -32 37 -47 49 -16 13 -28 29 -28 34 0 6 -19 32 -42 58
-24 27 -62 70 -84 96 -23 27 -75 87 -115 134 -41 47 -125 144 -186 215 -61 72
-129 150 -151 175 -75 85 -252 285 -329 373 -43 49 -108 121 -145 160 -37 40
-68 75 -68 79 0 3 -26 33 -57 65 -67 69 -95 99 -268 288 -70 77 -150 163 -179
191 -28 28 -98 102 -156 164 -391 422 -1046 1039 -1414 1330 -73 58 -184 148
-247 201 -163 137 -529 401 -699 503 -80 48 -183 114 -230 146 -47 33 -97 62
-112 65 -14 4 -64 31 -110 62 -45 30 -101 61 -123 69 -22 8 -70 33 -106 54
-36 22 -71 40 -78 40 -8 0 -48 17 -90 39 -42 21 -103 50 -136 64 -33 14 -91
39 -130 55 -65 28 -344 127 -390 139 -11 3 -27 7 -35 10 -61 23 -342 92 -375
92 -11 0 -54 7 -95 16 -41 8 -113 19 -160 25 -124 14 -450 20 -560 9z"/>
<path d="M18660 28003 c-94 -7 -308 -35 -375 -49 -39 -9 -119 -39 -182 -70
-93 -46 -121 -65 -169 -117 -83 -89 -108 -150 -106 -255 3 -145 60 -271 219
-483 120 -160 357 -424 578 -644 99 -98 460 -475 595 -620 45 -49 93 -99 105
-111 13 -12 62 -66 110 -120 49 -54 103 -115 122 -134 56 -59 277 -312 313
-360 19 -25 64 -79 100 -121 36 -43 83 -100 105 -128 22 -29 53 -68 69 -87 68
-82 276 -356 363 -478 79 -111 287 -416 344 -505 97 -152 281 -456 308 -508
17 -32 35 -65 40 -73 74 -120 251 -460 356 -685 173 -369 238 -526 366 -889
l49 -139 -147 8 c-82 4 -172 9 -201 10 -29 2 -85 6 -125 9 -40 3 -105 8 -144
11 -91 6 -311 31 -463 51 -63 8 -131 17 -150 19 -19 1 -78 10 -130 19 -52 9
-111 18 -130 21 -19 2 -71 11 -115 19 -259 47 -316 58 -370 72 -33 9 -80 20
-105 24 -25 5 -63 13 -85 19 -22 5 -71 16 -110 24 -38 9 -81 20 -95 25 -14 5
-70 20 -125 32 -55 13 -118 28 -140 35 -22 7 -60 18 -85 25 -25 7 -65 18 -90
25 -25 8 -65 19 -90 25 -25 7 -90 27 -145 45 -55 18 -149 49 -210 69 -137 43
-168 54 -225 76 -25 10 -61 23 -80 30 -19 6 -62 22 -95 35 -33 12 -76 28 -95
35 -19 7 -53 20 -75 30 -22 9 -105 41 -185 70 -80 30 -163 64 -186 77 -22 13
-47 23 -55 23 -8 0 -39 13 -69 30 -30 16 -63 29 -73 30 -10 0 -35 9 -55 19
-103 53 -209 101 -222 101 -9 0 -25 7 -37 15 -12 8 -77 40 -145 71 -169 76
-244 112 -613 295 -176 87 -332 161 -348 165 -15 3 -30 10 -33 15 -6 10 -249
129 -264 129 -6 0 -34 14 -63 30 -30 17 -60 30 -68 30 -8 0 -39 13 -69 29 -30
16 -91 41 -135 56 -44 15 -91 33 -105 40 -14 7 -75 24 -137 39 -86 21 -140 27
-235 29 -118 1 -126 0 -188 -30 -68 -31 -117 -80 -174 -172 -43 -67 -56 -133
-63 -301 -5 -134 -3 -171 16 -270 66 -349 239 -781 516 -1285 48 -88 101 -185
117 -215 16 -30 51 -91 78 -135 27 -44 55 -91 62 -105 7 -14 37 -63 67 -110
30 -46 69 -109 86 -140 41 -70 69 -114 128 -196 26 -37 47 -72 47 -79 0 -7 6
-18 14 -24 8 -7 33 -42 56 -79 44 -71 83 -129 100 -149 11 -14 96 -140 125
-187 11 -18 38 -56 60 -86 22 -30 49 -68 60 -86 42 -68 73 -110 94 -128 11
-11 21 -27 21 -36 0 -9 10 -26 23 -37 12 -12 38 -45 57 -74 19 -28 50 -69 69
-91 19 -21 31 -41 28 -44 -3 -3 22 -38 55 -77 33 -40 63 -79 66 -87 3 -8 17
-29 31 -47 53 -66 77 -97 96 -129 28 -45 99 -136 118 -153 10 -7 17 -18 17
-24 0 -6 9 -20 19 -31 11 -12 30 -35 43 -53 13 -17 43 -58 68 -90 25 -32 52
-67 60 -79 8 -13 43 -56 78 -98 34 -42 62 -79 62 -82 0 -4 17 -26 38 -49 34
-40 196 -244 252 -320 37 -50 235 -295 267 -331 15 -17 45 -53 66 -80 59 -76
147 -186 198 -245 121 -144 247 -294 269 -324 14 -17 35 -43 48 -56 13 -13 43
-49 68 -79 53 -65 103 -122 216 -248 45 -52 90 -104 98 -115 15 -23 71 -89
146 -172 159 -177 210 -235 241 -277 19 -27 38 -48 42 -48 4 0 38 -36 76 -81
37 -44 91 -105 119 -135 28 -30 74 -80 102 -112 122 -136 190 -210 233 -254
25 -26 71 -75 101 -109 30 -34 80 -87 112 -118 31 -31 121 -126 200 -211 399
-427 1027 -1018 1377 -1295 69 -55 184 -148 254 -206 180 -150 496 -377 673
-485 83 -51 180 -113 214 -138 35 -26 98 -63 139 -83 42 -20 108 -57 146 -83
39 -26 86 -52 106 -59 20 -6 62 -27 93 -46 31 -18 66 -37 79 -41 12 -3 56 -24
97 -45 42 -22 80 -39 84 -39 5 0 32 -11 60 -24 124 -58 161 -72 321 -128 94
-33 184 -63 200 -68 17 -4 77 -22 135 -38 135 -39 260 -66 267 -58 3 3 14 1
24 -4 16 -9 37 -14 119 -26 190 -29 486 -40 655 -25 159 15 373 52 480 85 304
91 623 249 808 400 31 25 61 46 67 46 10 0 25 14 183 162 98 92 217 235 307
367 58 87 190 332 190 353 0 6 11 34 24 62 22 49 86 226 119 331 14 44 40 147
91 365 26 110 63 295 105 525 22 121 47 254 56 295 9 41 24 118 34 170 11 52
27 127 36 165 9 39 20 90 24 115 5 25 25 106 46 180 20 74 40 151 44 170 4 19
13 45 20 58 6 12 9 27 6 33 -4 5 3 26 14 45 12 19 21 43 21 53 0 19 28 95 60
166 10 22 28 64 40 94 11 30 27 63 35 75 8 11 15 30 15 41 0 11 9 34 21 50 11
17 38 66 61 110 55 107 168 272 220 321 24 22 70 71 102 108 33 38 72 76 87
85 15 9 67 53 116 98 137 127 179 163 190 163 9 0 43 24 117 82 16 13 34 25
40 28 6 3 58 36 116 74 158 104 169 110 255 161 44 25 87 50 95 56 8 5 24 13
35 18 11 5 80 43 152 85 73 42 136 76 140 76 4 0 33 15 63 33 30 18 100 57
155 86 55 30 105 58 111 63 7 5 47 27 90 49 111 58 462 270 523 317 20 15 65
47 101 71 36 24 79 56 95 71 17 15 37 31 47 36 47 26 242 214 330 319 100 120
278 375 278 398 0 7 20 53 44 102 89 184 122 283 187 555 34 143 43 241 42
480 0 146 -5 275 -12 320 -7 41 -14 89 -16 105 -9 81 -63 310 -85 360 -4 11
-11 29 -13 40 -3 11 -20 58 -37 105 -17 47 -35 97 -40 111 -11 36 -189 380
-206 400 -8 8 -14 20 -14 25 0 5 -22 43 -50 84 -77 117 -93 140 -121 173 -14
18 -34 47 -43 65 -9 18 -23 35 -31 38 -8 3 -17 15 -21 26 -3 12 -23 38 -43 59
-20 21 -54 61 -76 89 -130 165 -379 422 -591 611 -65 59 -159 143 -209 188
-120 107 -270 225 -385 302 -52 35 -178 124 -280 198 -102 74 -232 163 -290
197 -58 35 -170 105 -250 157 -194 126 -385 241 -496 297 -51 26 -105 56 -121
68 -51 36 -817 432 -836 432 -4 0 -76 33 -159 74 -223 107 -361 171 -708 328
-36 16 -91 42 -122 59 -31 16 -61 29 -67 29 -6 0 -73 27 -148 61 -230 100
-265 116 -343 149 -41 17 -102 45 -134 61 -32 16 -64 29 -71 29 -7 0 -37 11
-66 24 -47 20 -201 86 -374 158 -27 12 -72 31 -100 44 -27 12 -68 29 -90 37
-91 34 -544 216 -565 227 -13 7 -66 28 -119 47 -141 51 -183 67 -316 118 -128
50 -218 85 -275 105 -65 24 -234 87 -315 118 -44 16 -121 44 -172 61 -50 16
-119 42 -152 56 -34 14 -85 32 -114 40 -70 19 -343 115 -437 153 -70 28 -472
161 -695 231 -55 17 -144 44 -197 61 -54 16 -133 39 -175 50 -43 12 -127 36
-188 55 -437 135 -1100 295 -1555 375 -318 57 -389 66 -710 90 -239 18 -332
21 -440 13z"/>
<path d="M22000 8798 c-293 -596 -535 -1089 -537 -1096 -4 -10 32 -12 173 -10
l179 3 100 197 100 198 532 0 531 0 105 -197 104 -198 182 -3 182 -2 -109 212
c-61 117 -311 609 -557 1093 -246 484 -449 881 -450 883 -1 1 -242 -485 -535
-1080z m734 0 l193 -393 -194 -3 c-107 -1 -279 -1 -383 0 l-189 3 187 392
c103 216 188 393 190 393 2 0 90 -177 196 -392z"/>
<path d="M15970 8765 l0 -1075 160 0 160 0 2 730 3 729 878 -754 c483 -415
880 -755 883 -755 2 0 4 486 4 1080 l0 1080 -155 0 -155 0 0 -736 c0 -475 -3
-734 -10 -732 -5 2 -400 338 -876 748 -477 410 -873 749 -880 753 -12 7 -14
-164 -14 -1068z"/>
<path d="M10270 8745 l0 -1055 529 0 c566 0 682 6 817 45 335 98 624 393 716
735 20 75 23 108 23 275 0 167 -3 200 -23 275 -79 288 -292 542 -565 675 -195
94 -292 105 -984 105 l-513 0 0 -1055z m1187 719 c153 -31 259 -89 374 -204
164 -164 240 -377 212 -599 -23 -179 -82 -298 -213 -430 -96 -97 -177 -149
-295 -189 l-80 -27 -432 -3 -433 -3 0 735 0 736 395 0 c321 0 410 -3 472 -16z"/>
<path d="M13150 8745 l0 -1055 980 0 980 0 0 160 0 160 -820 0 -820 0 0 290 0
290 550 0 550 0 0 155 0 155 -550 0 -550 0 0 290 0 290 820 0 820 0 0 160 0
160 -980 0 -980 0 0 -1055z"/>
<path d="M18820 9640 l0 -160 443 -2 442 -3 3 -892 2 -893 155 0 155 0 2 893
3 892 443 3 442 2 0 160 0 160 -1045 0 -1045 0 0 -160z"/>
<path d="M24350 8745 l0 -1055 880 0 880 0 0 160 0 160 -720 0 -720 0 0 895 0
895 -160 0 -160 0 0 -1055z"/>
<path d="M0 4015 l0 -3725 3125 0 3125 0 0 565 0 565 -2555 0 -2555 0 0 3160
0 3160 -570 0 -570 0 0 -3725z"/>
<path d="M10330 3181 l0 -2991 385 0 385 0 2 2027 3 2028 2096 -2075 c1152
-1141 2114 -2093 2137 -2115 l42 -39 0 3007 0 3007 -385 0 -385 0 -2 -2037 -3
-2037 -2129 2104 c-1171 1158 -2133 2107 -2138 2108 -4 2 -8 -1342 -8 -2987z"/>
<path d="M19975 4320 c-874 -946 -1593 -1720 -1597 -1720 -5 0 -8 772 -8 1715
l0 1715 -385 0 -385 0 0 -2920 0 -2920 385 0 385 0 1 588 0 587 667 722 c367
397 671 720 676 719 5 -1 457 -589 1005 -1306 l997 -1305 518 -3 c322 -1 516
1 514 7 -1 5 -558 733 -1237 1616 l-1233 1607 29 31 c17 18 544 590 1173 1272
629 682 1159 1257 1178 1278 l36 37 -564 0 -565 -1 -1590 -1719z"/>
<path d="M7350 3110 l0 -2920 385 0 385 0 0 2920 0 2920 -385 0 -385 0 0
-2920z"/>
<path d="M24512 3113 l3 -2918 2363 -3 2362 -2 0 445 0 445 -1977 2 -1978 3
-3 787 -2 788 1337 2 1338 3 3 447 2 448 -1337 2 -1338 3 -3 788 -2 787 1980
0 1980 0 0 445 0 445 -2365 0 -2365 0 2 -2917z"/>
<path d="M31322 3113 l3 -2918 1335 0 c1430 0 1417 0 1665 52 899 188 1689
1007 1945 2018 46 179 65 289 86 490 20 189 14 648 -11 825 -101 723 -389
1293 -906 1795 -394 382 -855 597 -1384 645 -66 6 -633 10 -1423 10 l-1312 0
2 -2917z m2767 2011 c410 -68 749 -278 1043 -645 318 -397 468 -833 468 -1364
0 -634 -220 -1158 -663 -1581 -279 -266 -582 -409 -946 -444 -53 -5 -502 -10
-998 -10 l-903 0 0 2030 0 2030 951 0 c825 0 964 -2 1048 -16z"/>
</g>
</svg>
